<svg width="136" height="86" viewBox="0 0 136 86" fill="none" xmlns="http://www.w3.org/2000/svg">
<circle cx="7.14474" cy="7.14474" r="7.14474" fill="#323131"/>
<circle cx="7.14474" cy="30.9607" r="7.14474" fill="#323131"/>
<circle cx="7.14474" cy="54.7765" r="7.14474" fill="#323131"/>
<circle cx="7.14474" cy="78.5921" r="7.14474" fill="#323131"/>
<circle cx="31.4343" cy="7.14474" r="7.14474" fill="#323131"/>
<circle cx="31.4343" cy="30.9607" r="7.14474" fill="#323131"/>
<circle cx="31.4343" cy="54.7765" r="7.14474" fill="#323131"/>
<circle cx="31.4343" cy="78.5921" r="7.14474" fill="#323131"/>
<circle cx="55.7238" cy="7.14474" r="7.14474" fill="#323131"/>
<circle cx="55.7238" cy="30.9607" r="7.14474" fill="#323131"/>
<circle cx="55.7238" cy="54.7765" r="7.14474" fill="#323131"/>
<circle cx="55.7238" cy="78.5921" r="7.14474" fill="#323131"/>
<circle cx="80.0134" cy="7.14474" r="7.14474" fill="#323131"/>
<circle cx="80.0134" cy="30.9607" r="7.14474" fill="#323131"/>
<circle cx="80.0134" cy="54.7765" r="7.14474" fill="#323131"/>
<circle cx="80.0134" cy="78.5921" r="7.14474" fill="#323131"/>
<circle cx="104.302" cy="7.14474" r="7.14474" fill="#323131"/>
<circle cx="104.302" cy="30.9607" r="7.14474" fill="#323131"/>
<circle cx="104.302" cy="54.7765" r="7.14474" fill="#323131"/>
<circle cx="104.302" cy="78.5921" r="7.14474" fill="#323131"/>
<circle cx="128.592" cy="7.14474" r="7.14474" fill="#323131"/>
<circle cx="128.592" cy="30.9607" r="7.14474" fill="#323131"/>
<circle cx="128.592" cy="54.7765" r="7.14474" fill="#323131"/>
<circle cx="128.592" cy="78.5921" r="7.14474" fill="#323131"/>
</svg>
