<svg width="181" height="136" viewBox="0 0 181 136" fill="none" xmlns="http://www.w3.org/2000/svg">
<g clip-path="url(#clip0)">
<circle cx="7.14474" cy="128.592" r="7.14474" transform="rotate(-90 7.14474 128.592)" fill="#323131"/>
<circle cx="30.9607" cy="128.592" r="7.14474" transform="rotate(-90 30.9607 128.592)" fill="#323131"/>
<circle cx="54.7763" cy="128.592" r="7.14474" transform="rotate(-90 54.7763 128.592)" fill="#323131"/>
<circle cx="78.592" cy="128.592" r="7.14474" transform="rotate(-90 78.592 128.592)" fill="#323131"/>
<circle cx="102.408" cy="128.592" r="7.14474" transform="rotate(-90 102.408 128.592)" fill="#323131"/>
<circle cx="126.224" cy="128.592" r="7.14474" transform="rotate(-90 126.224 128.592)" fill="#323131"/>
<circle cx="150.04" cy="128.592" r="7.14474" transform="rotate(-90 150.04 128.592)" fill="#323131"/>
<circle cx="173.855" cy="128.592" r="7.14474" transform="rotate(-90 173.855 128.592)" fill="#323131"/>
<circle cx="7.14474" cy="104.303" r="7.14474" transform="rotate(-90 7.14474 104.303)" fill="#323131"/>
<circle cx="30.9607" cy="104.303" r="7.14474" transform="rotate(-90 30.9607 104.303)" fill="#323131"/>
<circle cx="54.7763" cy="104.303" r="7.14474" transform="rotate(-90 54.7763 104.303)" fill="#323131"/>
<circle cx="78.592" cy="104.303" r="7.14474" transform="rotate(-90 78.592 104.303)" fill="#323131"/>
<circle cx="102.408" cy="104.303" r="7.14474" transform="rotate(-90 102.408 104.303)" fill="#323131"/>
<circle cx="126.224" cy="104.303" r="7.14474" transform="rotate(-90 126.224 104.303)" fill="#323131"/>
<circle cx="150.04" cy="104.303" r="7.14474" transform="rotate(-90 150.04 104.303)" fill="#323131"/>
<circle cx="173.855" cy="104.303" r="7.14474" transform="rotate(-90 173.855 104.303)" fill="#323131"/>
<circle cx="7.14474" cy="80.0131" r="7.14474" transform="rotate(-90 7.14474 80.0131)" fill="#323131"/>
<circle cx="30.9607" cy="80.0131" r="7.14474" transform="rotate(-90 30.9607 80.0131)" fill="#323131"/>
<circle cx="54.7763" cy="80.0131" r="7.14474" transform="rotate(-90 54.7763 80.0131)" fill="#323131"/>
<circle cx="78.592" cy="80.0131" r="7.14474" transform="rotate(-90 78.592 80.0131)" fill="#323131"/>
<circle cx="102.408" cy="80.0131" r="7.14474" transform="rotate(-90 102.408 80.0131)" fill="#323131"/>
<circle cx="126.224" cy="80.0131" r="7.14474" transform="rotate(-90 126.224 80.0131)" fill="#323131"/>
<circle cx="150.04" cy="80.0131" r="7.14474" transform="rotate(-90 150.04 80.0131)" fill="#323131"/>
<circle cx="173.855" cy="80.0131" r="7.14474" transform="rotate(-90 173.855 80.0131)" fill="#323131"/>
<circle cx="7.14474" cy="55.7237" r="7.14474" transform="rotate(-90 7.14474 55.7237)" fill="#323131"/>
<circle cx="30.9607" cy="55.7237" r="7.14474" transform="rotate(-90 30.9607 55.7237)" fill="#323131"/>
<circle cx="54.7763" cy="55.7237" r="7.14474" transform="rotate(-90 54.7763 55.7237)" fill="#323131"/>
<circle cx="78.592" cy="55.7237" r="7.14474" transform="rotate(-90 78.592 55.7237)" fill="#323131"/>
<circle cx="102.408" cy="55.7237" r="7.14474" transform="rotate(-90 102.408 55.7237)" fill="#323131"/>
<circle cx="126.224" cy="55.7237" r="7.14474" transform="rotate(-90 126.224 55.7237)" fill="#323131"/>
<circle cx="150.04" cy="55.7237" r="7.14474" transform="rotate(-90 150.04 55.7237)" fill="#323131"/>
<circle cx="173.855" cy="55.7237" r="7.14474" transform="rotate(-90 173.855 55.7237)" fill="#323131"/>
<circle cx="7.14474" cy="31.4342" r="7.14474" transform="rotate(-90 7.14474 31.4342)" fill="#323131"/>
<circle cx="30.9607" cy="31.4342" r="7.14474" transform="rotate(-90 30.9607 31.4342)" fill="#323131"/>
<circle cx="54.7763" cy="31.4342" r="7.14474" transform="rotate(-90 54.7763 31.4342)" fill="#323131"/>
<circle cx="78.592" cy="31.4342" r="7.14474" transform="rotate(-90 78.592 31.4342)" fill="#323131"/>
<circle cx="102.408" cy="31.4342" r="7.14474" transform="rotate(-90 102.408 31.4342)" fill="#323131"/>
<circle cx="126.224" cy="31.4342" r="7.14474" transform="rotate(-90 126.224 31.4342)" fill="#323131"/>
<circle cx="150.04" cy="31.4342" r="7.14474" transform="rotate(-90 150.04 31.4342)" fill="#323131"/>
<circle cx="173.855" cy="31.4342" r="7.14474" transform="rotate(-90 173.855 31.4342)" fill="#323131"/>
<circle cx="7.14474" cy="7.14471" r="7.14474" transform="rotate(-90 7.14474 7.14471)" fill="#323131"/>
<circle cx="30.9607" cy="7.14471" r="7.14474" transform="rotate(-90 30.9607 7.14471)" fill="#323131"/>
<circle cx="54.7763" cy="7.14471" r="7.14474" transform="rotate(-90 54.7763 7.14471)" fill="#323131"/>
<circle cx="78.592" cy="7.14471" r="7.14474" transform="rotate(-90 78.592 7.14471)" fill="#323131"/>
<circle cx="102.408" cy="7.14471" r="7.14474" transform="rotate(-90 102.408 7.14471)" fill="#323131"/>
<circle cx="126.224" cy="7.14471" r="7.14474" transform="rotate(-90 126.224 7.14471)" fill="#323131"/>
<circle cx="150.04" cy="7.14471" r="7.14474" transform="rotate(-90 150.04 7.14471)" fill="#323131"/>
<circle cx="173.855" cy="7.14471" r="7.14474" transform="rotate(-90 173.855 7.14471)" fill="#323131"/>
</g>
<defs>
<clipPath id="clip0">
<rect width="135.737" height="181" fill="white" transform="translate(0 135.737) rotate(-90)"/>
</clipPath>
</defs>
</svg>
